<?xml version="1.0" standalone="no"?>
<!DOCTYPE svg PUBLIC "-//W3C//DTD SVG 20010904//EN"
 "http://www.w3.org/TR/2001/REC-SVG-20010904/DTD/svg10.dtd">
<svg version="1.0" xmlns="http://www.w3.org/2000/svg"
 width="120.000000pt" height="120.000000pt" viewBox="0 0 120.000000 120.000000"
 preserveAspectRatio="xMidYMid meet">
<metadata>
Created by potrace 1.14, written by Peter Selinger 2001-2017
</metadata>
<g transform="translate(0.000000,120.000000) scale(0.100000,-0.100000)"
fill="#000000" stroke="none">
<path d="M832 994 c-12 -8 -20 -19 -17 -24 3 -5 -1 -15 -9 -22 -19 -19 -19
-195 0 -202 8 -3 11 -16 8 -35 -5 -28 15 -65 35 -66 15 -1 51 -31 51 -43 0
-17 -65 -79 -91 -87 -10 -4 -19 -10 -19 -14 0 -20 -35 -4 -71 31 -31 30 -36
40 -23 45 8 3 13 11 10 19 -3 7 2 18 9 24 8 7 12 16 9 21 -3 5 2 12 10 15 9 4
16 18 16 34 0 16 5 32 10 35 12 7 14 65 2 65 -4 0 -13 -5 -20 -12 -9 -9 -12
-7 -12 9 0 12 -4 25 -10 28 -10 6 -14 -7 -11 -32 1 -7 -3 -13 -9 -13 -5 0 -10
5 -10 10 0 6 -7 10 -15 10 -9 0 -15 -7 -13 -17 5 -28 -30 -27 -57 3 -14 15
-25 37 -25 49 0 13 -7 28 -15 35 -8 7 -13 16 -10 20 2 4 -8 20 -23 35 -25 24
-37 28 -92 29 -61 2 -64 1 -102 -38 -21 -22 -38 -49 -38 -60 0 -11 -14 -35
-32 -53 -37 -38 -47 -97 -19 -108 14 -6 14 -8 0 -18 -14 -11 -8 -20 47 -75 35
-34 66 -63 69 -62 21 1 25 -3 23 -26 -2 -15 -8 -29 -15 -31 -7 -3 -11 -9 -8
-13 3 -5 -1 -14 -8 -22 -8 -7 -14 -30 -14 -50 0 -29 8 -44 33 -69 l33 -32 -32
-16 c-25 -13 -32 -22 -32 -46 0 -29 2 -30 44 -31 25 -1 54 4 65 11 12 7 32 12
46 10 14 -1 28 2 31 7 3 5 15 11 25 12 11 2 20 12 22 24 3 23 18 30 24 12 2
-5 14 -11 26 -13 18 -3 38 11 83 56 32 32 59 63 59 69 0 6 3 9 6 5 4 -3 19 0
35 9 16 8 29 12 29 10 0 -3 23 18 52 46 46 46 52 55 52 95 1 27 7 47 16 53 8
5 11 10 5 10 -5 0 -3 5 5 10 18 11 22 77 7 105 -6 11 -11 28 -12 37 0 9 -25
43 -55 75 -55 57 -56 59 -54 116 1 31 1 57 0 57 -1 0 -12 -7 -24 -16z"/>
<path d="M957 992 c-23 -25 -10 -35 14 -11 10 10 19 21 19 24 0 11 -18 4 -33
-13z"/>
<path d="M668 944 c-8 -17 -3 -49 13 -71 18 -25 29 -21 29 11 0 24 -35 73 -42
60z"/>
<path d="M956 905 c-9 -14 -14 -30 -11 -35 3 -6 1 -10 -6 -10 -8 0 -8 -4 2
-16 11 -14 15 -13 30 8 16 20 19 62 6 75 -2 2 -12 -8 -21 -22z"/>
</g>
</svg>
